<svg xmlns="http://www.w3.org/2000/svg" width="20.127" height="15.403" viewBox="0 0 20.127 15.403">
  <path id="Icon_ionic-ios-checkmark-circle" data-name="Icon ionic-ios-checkmark-circle" d="M28.209,11.748,15.721,24.293h-.009a1.687,1.687,0,0,1-1.084.514,1.635,1.635,0,0,1-1.093-.532L8.3,19.043a.372.372,0,0,1,0-.532l1.663-1.663a.361.361,0,0,1,.523,0L14.637,21l11.4-11.48a.369.369,0,0,1,.262-.112h0a.339.339,0,0,1,.262.112l1.635,1.691A.368.368,0,0,1,28.209,11.748Z" transform="translate(-8.192 -9.404)" fill="#fc4f00"/>
</svg>
