<svg xmlns="http://www.w3.org/2000/svg" width="171.691" height="17.202" viewBox="0 0 171.691 17.202">
  <path transform="translate(162.286 17.063) rotate(-178)" fill="#48a18a" d="M-.9,11.4C-2.924,7.957,97.712,3.518,136.661,2.988c-4.537,0-21.318-.79-29.954-.595-13.7.309-21.545.49-35.236,1.213C59.608,4.232,46,4.876,34.141,5.728,29.2,6.082,3.157,6.153-1.793,6.3c-.452.014-6.765-.35-7.219-.538,0-.226,0-.452,0-.679a25.6,25.6,0,0,1,7.483-1.21C1.636,3.8,25.889,3.057,29.044,2.834c5.508-.391,14.524.16,20.029-.329,7.651-.68,13.546-.21,21.2-.8C75.456,1.3,80.643.9,85.831.8,112.437.286,133.193.63,159.8.182a8.713,8.713,0,0,1,1.262.031c1.277.166,1.616,1.08,1.094,2.775-.206.668-.316,1.4-.491,2.2ZM157.727,6.216c-.008-.377-.015.119-.022-.256"/>
</svg>
