<svg xmlns="http://www.w3.org/2000/svg" width="395.229" height="18.219" viewBox="0 0 395.229 18.219">
  <path id="Path_65" data-name="Path 65" d="M307.229,7.3a75.1,75.1,0,0,1-7.948,4.589c-2.423,1-2.914.709-3.727-2.09-4.642.242-9.328.573-14.02.716-15.718.483-71.436.983-87.158,1.321-27.617.593-55.241.919-82.855,1.65-20.184.534-40.361,1.453-60.533,2.361C37.836,16.44-53.3,17.34-66.448,18.049c-2.031.11-4.644.98-4.645-2.638l-3.071-.4.012-.581C-8.03,7.407,183.189,3.836,249.684,3.228c-7.746,0-76.389-.208-91.132.016-23.388.355-46.78.737-70.155,1.566C68.144,5.528,5.917,6.947-14.328,7.924c-8.441.407-52.9.488-61.347.658-.771.016-11.55-.4-12.325-.617,0-.259.005-.519.007-.779A63.177,63.177,0,0,1-75.217,5.8c5.4-.081,46.8-.938,52.188-1.194,9.4-.448,43.793-.148,53.191-.709,13.062-.78,43.123-.59,56.19-1.27,8.848-.461,17.7-.921,26.56-1.036C158.336,1,243.762.523,289.187.009c.719-.008,1.441-.026,2.155.036,2.18.19,2.759,1.239,1.867,3.183a24.467,24.467,0,0,0-.839,2.52l14.859.889ZM-38.32,14.493C29.288,10.582,218,8.8,285.647,6.931c-.013-.432-.026.137-.038-.294C217.9,6.694,29.188,7.992-38.32,14.493" transform="translate(88 0)" fill="#fc4f00"/>
</svg>
