<?xml version="1.0" encoding="UTF-8"?>
<svg width="24px" height="24px" viewBox="0 0 24 24" version="1.1" xmlns="http://www.w3.org/2000/svg" xmlns:xlink="http://www.w3.org/1999/xlink">
    <title>Group</title>
    <g id="Page-1" stroke="none" stroke-width="1" fill="none" fill-rule="evenodd" opacity="0.996">
        <g id="Group" fill="#000000" fill-rule="nonzero">
            <g id="layer1">
                <path d="M1.00010164,0 C0.447816886,0 0.000101636164,0.44771525 0.000101636164,1 L0.000101636164,8.086 C0.000101636164,8.63828475 0.447816886,9.086 1.00010164,9.086 C1.55238639,9.086 2.00010164,8.63828475 2.00010164,8.086 L2.00010164,2 L8.05710164,2 C8.60938639,2 9.05710164,1.55228475 9.05710164,1 C9.05710164,0.44771525 8.60938639,0 8.05710164,0 L1.00010164,0 Z" id="path1026"></path>
                <path d="M15.9421016,0 C15.3898169,0 14.9421016,0.44771525 14.9421016,1 C14.9421016,1.55228475 15.3898169,2 15.9421016,2 L22.0001016,2 L22.0001016,8.086 C22.0001016,8.63828475 22.4478169,9.086 23.0001016,9.086 C23.5523864,9.086 24.0001016,8.63828475 24.0001016,8.086 L24.0001016,1 C24.0001016,0.44771525 23.5523864,0 23.0001016,0 L15.9421016,0 Z" id="path1028"></path>
                <path d="M0.985101636,14.9 C0.433186459,14.9082247 -0.00768731334,15.3620785 0.000101636164,15.914 L0.000101636164,23 C0.000101636164,23.5522847 0.447816886,24 1.00010164,24 L8.05810164,24 C8.61038639,24 9.05810164,23.5522847 9.05810164,23 C9.05810164,22.4477153 8.61038639,22 8.05810164,22 L2.00010164,22 L2.00010164,15.914 C2.0039164,15.643745 1.89817181,15.3834548 1.70695944,15.1924308 C1.51574707,15.0014068 1.25535278,14.8959188 0.985101636,14.9 Z" id="path1033"></path>
                <path d="M22.9841016,14.9 C22.4325793,14.9087704 21.9923096,15.362463 22.0001016,15.914 L22.0001016,22 L15.9411016,22 C15.3888169,22 14.9411016,22.4477153 14.9411016,23 C14.9411016,23.5522847 15.3888169,24 15.9411016,24 L23.0001016,24 C23.5523864,24 24.0001016,23.5522847 24.0001016,23 L24.0001016,15.914 C24.0039231,15.6435688 23.8980424,15.3831216 23.7066112,15.1920673 C23.5151801,15.0010129 23.2545248,14.8956457 22.9841016,14.9 Z" id="path1035"></path>
            </g>
        </g>
    </g>
</svg>