<svg xmlns="http://www.w3.org/2000/svg" width="20.833" height="21.006" viewBox="0 0 20.833 21.006">
  <g id="user" transform="translate(-2.037)">
    <path id="Path_61" data-name="Path 61" d="M22.85,18.775a10.552,10.552,0,0,0-7.241-8.513,5.618,5.618,0,1,0-6.312,0,10.551,10.551,0,0,0-7.241,8.513,1.956,1.956,0,0,0,1.936,2.231H20.914a1.956,1.956,0,0,0,1.937-2.231ZM8.3,5.618A4.152,4.152,0,1,1,12.453,9.77,4.157,4.157,0,0,1,8.3,5.618ZM21.285,19.371a.486.486,0,0,1-.371.17H3.993a.49.49,0,0,1-.486-.558,9.039,9.039,0,0,1,17.892,0,.483.483,0,0,1-.115.388Z"/>
  </g>
</svg>
